<?xml version="1.0" encoding="UTF-8" standalone="no"?>
<!-- Created with Inkscape (http://www.inkscape.org/) -->

<svg
   width="80.168755mm"
   height="21.299637mm"
   viewBox="0 0 80.168755 21.299637"
   version="1.1"
   id="svg1"
   xmlns="http://www.w3.org/2000/svg"
   xmlns:svg="http://www.w3.org/2000/svg">
  <defs
     id="defs1" />
  <g
     id="layer1"
     transform="translate(-107.15624,-256.11666)">
    <path
       d="m 107.55312,256.51354 h 79.375 v 12.01854 h -79.375 z"
       id="path109"
       style="overflow:visible;fill:none;stroke:#fefefe;stroke-width:0.79375;stroke-miterlimit:4;stroke-dasharray:none;stroke-opacity:1" />
    <g
       id="SvgjsG212476"
       class="text"
       transform="matrix(0.17180736,0,0,0.17180736,147.18173,265.45215)"
       light-content="true"
       fill="#ffffff"
       style="overflow:visible;fill:#000000">
      <path
         d="m -208.72,-23.76 c 0,1.4 0.26,2.73 0.8,3.96 0.54,1.24 1.27,2.32 2.19,3.25 0.92,0.92 2,1.65 3.23,2.19 1.23,0.53 2.55,0.8 3.95,0.8 h 6.79 c 0.48,0 0.92,0.09 1.33,0.26 0.41,0.17 0.77,0.41 1.08,0.72 0.3,0.31 0.54,0.67 0.72,1.08 0.17,0.41 0.26,0.85 0.26,1.32 0,0.48 -0.09,0.92 -0.26,1.33 -0.18,0.41 -0.42,0.77 -0.72,1.08 -0.31,0.3 -0.67,0.54 -1.08,0.72 -0.41,0.17 -0.85,0.26 -1.33,0.26 h -15.07 V 0 h 15.07 c 1.41,0 2.73,-0.27 3.97,-0.8 1.24,-0.54 2.32,-1.27 3.24,-2.19 0.92,-0.93 1.65,-2 2.18,-3.23 0.53,-1.23 0.79,-2.55 0.79,-3.96 0,-1.4 -0.26,-2.72 -0.79,-3.96 -0.53,-1.24 -1.26,-2.32 -2.18,-3.24 -0.92,-0.93 -2,-1.65 -3.24,-2.18 -1.24,-0.53 -2.56,-0.79 -3.97,-0.79 h -6.79 c -0.47,0 -0.91,-0.09 -1.32,-0.26 -0.41,-0.18 -0.77,-0.42 -1.08,-0.72 -0.31,-0.31 -0.55,-0.67 -0.72,-1.09 -0.18,-0.42 -0.26,-0.87 -0.26,-1.34 0,-0.47 0.08,-0.92 0.26,-1.33 0.17,-0.41 0.41,-0.76 0.72,-1.07 0.31,-0.31 0.67,-0.55 1.08,-0.72 0.41,-0.18 0.85,-0.26 1.32,-0.26 h 15.57 v -6.8 h -15.57 c -1.4,0 -2.72,0.27 -3.95,0.81 -1.23,0.53 -2.31,1.26 -3.23,2.19 -0.92,0.92 -1.65,2 -2.19,3.23 -0.54,1.23 -0.8,2.55 -0.8,3.95 z M -138.61,0 v -24.23 c 0,-1.41 -0.26,-2.73 -0.79,-3.97 -0.53,-1.24 -1.26,-2.32 -2.18,-3.24 -0.92,-0.92 -2,-1.65 -3.24,-2.18 -1.24,-0.53 -2.56,-0.79 -3.96,-0.79 -1.27,0 -2.48,0.23 -3.64,0.67 -1.16,0.45 -2.2,1.11 -3.13,1.96 -0.93,-0.85 -1.98,-1.51 -3.15,-1.96 -1.17,-0.44 -2.38,-0.67 -3.64,-0.67 -1.41,0 -2.73,0.26 -3.97,0.79 -1.24,0.53 -2.32,1.26 -3.24,2.18 -0.92,0.92 -1.65,2 -2.18,3.24 -0.53,1.24 -0.79,2.56 -0.79,3.97 V 0 h 6.79 v -24.23 c 0,-0.48 0.09,-0.92 0.26,-1.33 0.18,-0.41 0.42,-0.77 0.72,-1.08 0.31,-0.3 0.67,-0.54 1.08,-0.72 0.41,-0.17 0.85,-0.26 1.33,-0.26 0.47,0 0.91,0.09 1.32,0.26 0.41,0.18 0.77,0.42 1.08,0.72 0.31,0.31 0.55,0.67 0.72,1.08 0.17,0.41 0.26,0.85 0.26,1.33 V 0 h 6.79 v -24.23 c 0,-0.48 0.09,-0.92 0.26,-1.33 0.18,-0.41 0.42,-0.77 0.72,-1.08 0.31,-0.3 0.67,-0.54 1.08,-0.72 0.41,-0.17 0.85,-0.26 1.33,-0.26 0.47,0 0.91,0.09 1.32,0.26 0.41,0.18 0.77,0.42 1.08,0.72 0.31,0.31 0.55,0.67 0.73,1.08 0.18,0.41 0.27,0.85 0.27,1.33 V 0 Z m 30.88,-13.56 h -13.58 v -6.79 c 0,-0.93 0.17,-1.81 0.53,-2.64 0.35,-0.83 0.84,-1.55 1.45,-2.17 0.62,-0.61 1.34,-1.1 2.17,-1.45 0.83,-0.36 1.71,-0.53 2.64,-0.53 0.93,0 1.81,0.17 2.64,0.53 0.83,0.35 1.55,0.84 2.16,1.45 0.62,0.62 1.1,1.34 1.46,2.17 0.35,0.83 0.53,1.71 0.53,2.64 z M -100.94,0 v -20.35 c 0,-1.88 -0.35,-3.64 -1.06,-5.29 -0.71,-1.65 -1.68,-3.09 -2.91,-4.32 -1.23,-1.23 -2.67,-2.2 -4.32,-2.91 -1.65,-0.71 -3.41,-1.07 -5.29,-1.07 -1.88,0 -3.64,0.36 -5.29,1.07 -1.65,0.71 -3.09,1.68 -4.31,2.91 -1.22,1.23 -2.19,2.67 -2.9,4.32 -0.71,1.65 -1.06,3.41 -1.06,5.29 V 0 h 6.77 v -6.79 h 13.58 V 0 Z m 17.53,-27.14 h 6.8 c 0.93,0 1.8,0.17 2.62,0.53 0.82,0.35 1.54,0.84 2.16,1.45 0.61,0.62 1.1,1.34 1.45,2.17 0.36,0.83 0.53,1.71 0.53,2.64 0,0.93 -0.17,1.81 -0.53,2.64 -0.35,0.82 -0.84,1.55 -1.45,2.16 -0.62,0.62 -1.34,1.1 -2.16,1.46 -0.82,0.35 -1.69,0.53 -2.62,0.53 h -6.8 z m 0,27.14 v -6.79 l 7.6,-0.05 2.96,6.84 h 7.22 l -3.77,-8.87 c 0.98,-0.62 1.87,-1.35 2.65,-2.18 0.79,-0.84 1.46,-1.75 2,-2.75 0.55,-0.99 0.97,-2.04 1.26,-3.14 0.29,-1.11 0.44,-2.24 0.44,-3.41 0,-1.25 -0.17,-2.45 -0.49,-3.6 -0.32,-1.15 -0.78,-2.23 -1.37,-3.24 -0.59,-1.01 -1.3,-1.93 -2.13,-2.76 -0.83,-0.83 -1.75,-1.54 -2.75,-2.13 -1,-0.59 -2.08,-1.05 -3.23,-1.37 -1.15,-0.32 -2.35,-0.49 -3.59,-0.49 H -90.2 V 0 Z m 43.31,0 v -27.14 h 10.17 v -6.8 h -27.14 v 6.8 h 10.2 V 0 Z m 23.02,-2.41 c 0,-0.56 -0.1,-1.08 -0.31,-1.57 -0.2,-0.48 -0.49,-0.91 -0.85,-1.27 -0.36,-0.37 -0.79,-0.65 -1.28,-0.87 -0.49,-0.21 -1.02,-0.32 -1.58,-0.32 -0.56,0 -1.08,0.11 -1.58,0.32 -0.5,0.22 -0.93,0.5 -1.3,0.87 -0.37,0.36 -0.66,0.79 -0.88,1.27 -0.21,0.49 -0.32,1.01 -0.32,1.57 0,0.56 0.11,1.1 0.32,1.59 0.22,0.5 0.51,0.93 0.88,1.29 0.37,0.37 0.8,0.65 1.3,0.87 0.5,0.21 1.02,0.32 1.58,0.32 0.56,0 1.09,-0.11 1.58,-0.32 0.49,-0.22 0.92,-0.5 1.28,-0.87 0.36,-0.36 0.65,-0.79 0.85,-1.29 0.21,-0.49 0.31,-1.03 0.31,-1.59 z M 0.05,0 V -13.56 H 13.61 V 0 h 6.79 v -33.94 h -6.79 v 13.59 H 0.05 V -33.94 H -6.74 V 0 Z m 46.76,0 v -10.63 c 1.49,-0.37 2.87,-0.98 4.11,-1.82 1.25,-0.83 2.32,-1.83 3.22,-2.99 0.9,-1.16 1.6,-2.45 2.1,-3.86 0.49,-1.41 0.74,-2.9 0.74,-4.46 v -10.18 h -6.77 v 10.18 c 0,0.93 -0.17,1.81 -0.53,2.64 -0.35,0.83 -0.84,1.55 -1.45,2.16 -0.62,0.62 -1.34,1.1 -2.17,1.46 -0.83,0.35 -1.71,0.53 -2.64,0.53 -0.93,0 -1.81,-0.18 -2.64,-0.53 -0.83,-0.36 -1.55,-0.84 -2.16,-1.46 -0.62,-0.61 -1.1,-1.33 -1.46,-2.16 -0.35,-0.83 -0.53,-1.71 -0.53,-2.64 v -10.18 h -6.79 v 10.18 c 0,1.56 0.25,3.05 0.74,4.46 0.5,1.41 1.2,2.7 2.1,3.86 0.9,1.16 1.97,2.16 3.23,2.99 1.25,0.84 2.63,1.45 4.13,1.82 V 0 Z m 33.88,0 v -27.14 h 10.18 v -6.8 H 63.72 v 6.8 h 10.2 V 0 Z m 41.88,0 V -6.79 H 106.1 v -6.77 h 11.15 v -6.79 H 106.1 v -6.79 h 16.47 v -6.8 H 99.31 V 0 Z m 16.87,-2.41 c 0,-0.56 -0.1,-1.08 -0.31,-1.57 -0.2,-0.48 -0.49,-0.91 -0.85,-1.27 -0.36,-0.37 -0.79,-0.65 -1.28,-0.87 -0.49,-0.21 -1.01,-0.32 -1.58,-0.32 -0.55,0 -1.08,0.11 -1.58,0.32 -0.49,0.22 -0.93,0.5 -1.3,0.87 -0.37,0.36 -0.66,0.79 -0.87,1.27 -0.22,0.49 -0.32,1.01 -0.32,1.57 0,0.56 0.1,1.1 0.32,1.59 0.21,0.5 0.5,0.93 0.87,1.29 0.37,0.37 0.81,0.65 1.3,0.87 0.5,0.21 1.03,0.32 1.58,0.32 0.57,0 1.09,-0.11 1.58,-0.32 0.49,-0.22 0.92,-0.5 1.28,-0.87 0.36,-0.36 0.65,-0.79 0.85,-1.29 0.21,-0.49 0.31,-1.03 0.31,-1.59 z m 17.13,-24.73 h 6.79 c 0.93,0 1.81,0.17 2.63,0.53 0.82,0.35 1.54,0.84 2.15,1.45 0.62,0.62 1.1,1.34 1.46,2.17 0.35,0.83 0.53,1.71 0.53,2.64 0,0.93 -0.18,1.81 -0.53,2.64 -0.36,0.82 -0.84,1.55 -1.46,2.16 -0.61,0.62 -1.33,1.1 -2.15,1.46 -0.82,0.35 -1.7,0.53 -2.63,0.53 h -6.79 z m 0,27.14 v -6.79 h 6.79 c 1.86,0 3.62,-0.36 5.27,-1.07 1.65,-0.71 3.09,-1.68 4.32,-2.91 1.23,-1.23 2.2,-2.67 2.91,-4.32 0.71,-1.65 1.06,-3.4 1.06,-5.26 0,-1.25 -0.16,-2.45 -0.48,-3.6 -0.33,-1.15 -0.78,-2.23 -1.38,-3.24 -0.59,-1.01 -1.3,-1.93 -2.13,-2.76 -0.82,-0.83 -1.74,-1.54 -2.74,-2.13 -1,-0.59 -2.08,-1.05 -3.23,-1.37 -1.15,-0.32 -2.35,-0.49 -3.6,-0.49 H 149.78 V 0 Z m 52.93,0 v -6.79 h -16.96 v -27.15 h -6.8 V 0 Z"
         id="path112"
         style="fill:#ffffff" />
    </g>
    <g
       id="SvgjsG212477"
       class="text"
       transform="matrix(0.17180736,0,0,0.17180736,147.18908,275.09991)"
       light-content="false"
       fill="#444444"
       style="overflow:visible">
      <path
         d="m -130.22,-1.34 c -0.07,0.1 -0.07,0.2 0,0.32 0.07,0.12 0.16,0.22 0.26,0.32 0.11,0.09 0.22,0.18 0.34,0.26 0.12,0.08 0.21,0.14 0.28,0.16 0.09,0.05 0.28,0.1 0.55,0.16 0.26,0.06 0.43,0.1 0.5,0.12 0.29,0.05 0.56,-0.07 0.81,-0.35 0.26,-0.28 0.39,-0.56 0.39,-0.85 -0.02,-0.02 -0.03,-0.04 -0.03,-0.07 v -0.07 c 0,-0.04 -0.02,-0.14 -0.04,-0.28 -0.02,-0.14 -0.05,-0.29 -0.09,-0.45 -0.03,-0.17 -0.07,-0.32 -0.1,-0.46 -0.04,-0.14 -0.06,-0.24 -0.06,-0.28 -0.28,-1.15 -0.47,-2.31 -0.58,-3.48 -0.1,-1.17 -0.18,-2.34 -0.24,-3.5 -0.06,-1.16 -0.13,-2.33 -0.21,-3.5 -0.09,-1.17 -0.23,-2.33 -0.44,-3.48 -0.14,-0.37 -0.42,-0.62 -0.83,-0.74 -0.41,-0.12 -0.79,-0.17 -1.14,-0.17 -0.24,0 -0.46,0.08 -0.69,0.26 -0.22,0.18 -0.33,0.39 -0.33,0.65 v 0.14 c 0,0.02 0.01,0.09 0.03,0.21 0.03,0.12 0.06,0.35 0.11,0.69 0.05,0.34 0.11,0.84 0.19,1.51 0.08,0.67 0.18,1.56 0.3,2.69 0.12,1.12 0.26,2.52 0.42,4.18 0.17,1.67 0.37,3.67 0.6,6.01 z m -1.97,-25.62 c 0,0.49 0.22,0.87 0.65,1.16 0.44,0.28 0.86,0.42 1.29,0.42 0.39,0 0.65,-0.07 0.75,-0.21 0.11,-0.14 0.16,-0.41 0.16,-0.81 0,-0.4 -0.22,-0.7 -0.65,-0.9 -0.43,-0.2 -0.83,-0.3 -1.18,-0.3 -0.14,0 -0.34,0.07 -0.61,0.2 -0.27,0.12 -0.41,0.27 -0.41,0.44 z m 20.02,25.76 c 0.16,0.36 0.46,0.64 0.88,0.87 0.42,0.22 0.83,0.33 1.23,0.33 0.33,0 0.56,-0.13 0.69,-0.4 0.12,-0.27 0.19,-0.55 0.19,-0.83 v -0.23 c 0,-0.1 -0.01,-0.17 -0.04,-0.19 l -1.47,-4.01 -1.9,-8.75 c -0.07,-0.26 -0.18,-0.57 -0.32,-0.94 -0.14,-0.36 -0.31,-0.71 -0.53,-1.05 -0.21,-0.34 -0.46,-0.62 -0.75,-0.83 -0.29,-0.21 -0.62,-0.3 -0.97,-0.28 -0.54,0.05 -0.97,0.29 -1.3,0.72 -0.33,0.44 -0.57,0.89 -0.74,1.36 -0.07,0.18 -0.18,0.51 -0.35,0.96 -0.16,0.46 -0.34,0.95 -0.54,1.46 -0.2,0.52 -0.38,1.01 -0.55,1.48 -0.16,0.47 -0.28,0.8 -0.35,0.98 -0.09,-0.37 -0.14,-0.69 -0.14,-0.95 v -0.95 c 0,-0.6 0.03,-1.21 0.09,-1.81 0.06,-0.59 0.09,-1.2 0.09,-1.81 0,-0.42 -0.2,-0.82 -0.58,-1.19 -0.39,-0.38 -0.81,-0.56 -1.25,-0.56 -0.33,0 -0.57,0.06 -0.72,0.19 -0.16,0.13 -0.26,0.3 -0.32,0.51 -0.06,0.21 -0.09,0.44 -0.11,0.68 -0.01,0.25 -0.01,0.49 -0.01,0.73 0.02,0.21 0.04,0.66 0.07,1.35 0.02,0.69 0.04,1.51 0.05,2.46 0.01,0.95 0.01,1.97 0,3.06 -0.01,1.09 -0.03,2.13 -0.05,3.11 -0.03,0.98 -0.07,1.85 -0.13,2.6 -0.05,0.75 -0.12,1.27 -0.19,1.55 0.02,0.21 0.1,0.4 0.23,0.56 0.13,0.16 0.29,0.31 0.47,0.42 0.19,0.12 0.39,0.21 0.6,0.27 0.21,0.05 0.41,0.08 0.6,0.08 0.37,0 0.64,-0.06 0.81,-0.19 0.16,-0.13 0.3,-0.36 0.42,-0.69 l 3.06,-9.42 c 0.28,-0.7 0.53,-1.02 0.74,-0.95 0.21,0.07 0.4,0.37 0.58,0.9 0.17,0.53 0.34,1.23 0.51,2.11 0.16,0.88 0.34,1.78 0.54,2.71 0.2,0.92 0.41,1.8 0.63,2.63 0.23,0.84 0.5,1.49 0.83,1.95 z m 11.51,-9.07 h 0.14 c 0.12,1.34 0.24,2.73 0.37,4.19 0.13,1.45 0.25,2.79 0.37,4.01 0.05,0.63 0.27,1.13 0.67,1.51 0.4,0.37 0.91,0.56 1.54,0.56 0.31,0 0.53,-0.18 0.67,-0.53 0.14,-0.35 0.21,-0.63 0.21,-0.84 0,-0.7 -0.07,-1.4 -0.21,-2.08 -0.14,-0.68 -0.27,-1.37 -0.38,-2.07 -0.12,-0.82 -0.2,-1.67 -0.23,-2.55 -0.04,-0.88 -0.06,-1.73 -0.06,-2.55 v -1.12 c 0.07,-0.07 0.15,-0.13 0.22,-0.16 0.07,-0.04 0.14,-0.08 0.21,-0.12 l 6.39,-2.39 c 0.26,-0.12 0.51,-0.25 0.74,-0.39 0.24,-0.14 0.35,-0.36 0.35,-0.67 0,-0.42 -0.12,-0.79 -0.36,-1.11 -0.25,-0.31 -0.61,-0.47 -1.08,-0.47 -0.68,0 -1.34,0.16 -2,0.47 -0.66,0.32 -1.29,0.61 -1.9,0.87 -0.12,0.04 -0.31,0.11 -0.58,0.21 -0.27,0.09 -0.56,0.19 -0.86,0.29 -0.31,0.11 -0.59,0.22 -0.86,0.32 -0.27,0.11 -0.45,0.17 -0.55,0.19 -0.02,-0.3 -0.06,-0.84 -0.1,-1.61 -0.05,-0.78 -0.1,-1.6 -0.14,-2.46 -0.05,-0.87 -0.1,-1.69 -0.14,-2.46 -0.05,-0.78 -0.07,-1.32 -0.07,-1.62 -0.03,-0.31 -0.04,-0.68 -0.04,-1.11 0,-0.43 -0.05,-0.84 -0.14,-1.23 -0.09,-0.39 -0.25,-0.71 -0.47,-0.98 -0.23,-0.27 -0.57,-0.41 -1.04,-0.41 -0.4,0 -0.72,0.07 -0.95,0.21 -0.23,0.14 -0.35,0.45 -0.35,0.92 0,1.71 0.08,3.44 0.24,5.18 0.17,1.75 0.25,3.49 0.25,5.22 v 1.55 c -0.23,0.19 -0.54,0.35 -0.93,0.49 -0.39,0.14 -0.77,0.3 -1.14,0.46 -0.38,0.16 -0.71,0.36 -0.99,0.58 -0.28,0.22 -0.42,0.51 -0.42,0.86 0,0.21 0.04,0.38 0.12,0.49 0.08,0.12 0.18,0.22 0.3,0.3 0.12,0.08 0.24,0.16 0.35,0.23 0.12,0.07 0.23,0.16 0.32,0.28 0.05,0 0.17,0.01 0.37,0.02 0.2,0.01 0.32,0.02 0.37,0.02 0.35,0 0.65,-0.09 0.91,-0.25 0.26,-0.16 0.55,-0.25 0.88,-0.25 z m 30.42,0.29 c 0,-0.68 -0.13,-1.14 -0.4,-1.38 -0.27,-0.23 -0.58,-0.34 -0.93,-0.33 -0.35,0.01 -0.7,0.12 -1.04,0.32 -0.34,0.2 -0.57,0.38 -0.68,0.54 l -1.45,2.22 -5.62,5.2 c -0.19,0.07 -0.36,0.19 -0.53,0.35 -0.16,0.17 -0.34,0.25 -0.52,0.25 -0.03,0 -0.06,-0.03 -0.11,-0.07 -0.02,-0.03 -0.04,-0.05 -0.04,-0.07 0,-0.26 0.02,-0.59 0.06,-1.01 0.03,-0.41 0.07,-0.81 0.12,-1.21 0.05,-0.4 0.09,-0.75 0.12,-1.07 0.04,-0.32 0.08,-0.52 0.13,-0.62 l 0.14,-0.28 c 0.07,-0.04 0.2,-0.14 0.4,-0.3 0.2,-0.15 0.42,-0.31 0.65,-0.49 0.24,-0.17 0.45,-0.34 0.65,-0.49 0.2,-0.15 0.34,-0.26 0.41,-0.33 0.02,-0.03 0.07,-0.09 0.15,-0.18 0.09,-0.09 0.17,-0.19 0.27,-0.28 l 0.26,-0.26 0.16,-0.16 c 0.05,-0.03 0.11,-0.06 0.18,-0.11 0.07,-0.05 0.11,-0.07 0.14,-0.07 0.23,-0.19 0.49,-0.39 0.77,-0.6 0.28,-0.21 0.54,-0.44 0.79,-0.68 0.25,-0.25 0.45,-0.52 0.62,-0.81 0.16,-0.29 0.24,-0.62 0.24,-0.97 0,-0.28 -0.13,-0.62 -0.38,-1.02 -0.26,-0.4 -0.58,-0.78 -0.95,-1.14 -0.38,-0.36 -0.77,-0.67 -1.18,-0.93 -0.41,-0.26 -0.76,-0.39 -1.04,-0.39 -0.49,0 -0.92,0.11 -1.28,0.32 -0.36,0.21 -0.68,0.48 -0.95,0.81 -0.27,0.33 -0.5,0.69 -0.7,1.1 -0.2,0.41 -0.38,0.82 -0.55,1.22 -0.05,0.14 -0.13,0.39 -0.26,0.75 -0.13,0.37 -0.27,0.75 -0.41,1.16 -0.14,0.41 -0.27,0.81 -0.4,1.18 -0.13,0.38 -0.22,0.63 -0.26,0.77 -0.08,0.15 -0.19,0.24 -0.36,0.29 -0.16,0.04 -0.33,0.08 -0.51,0.12 -0.17,0.03 -0.32,0.1 -0.45,0.19 -0.13,0.1 -0.2,0.28 -0.2,0.56 0,0.31 0.1,0.55 0.28,0.73 0.19,0.17 0.41,0.38 0.67,0.61 -0.14,0.63 -0.23,1.15 -0.26,1.55 -0.04,0.4 -0.05,0.89 -0.05,1.47 0,0.89 0.23,1.68 0.7,2.36 0.47,0.68 1.21,1.02 2.21,1.02 0.52,0 1.01,-0.09 1.48,-0.28 0.47,-0.19 0.92,-0.43 1.35,-0.72 0.44,-0.3 0.85,-0.63 1.25,-1 0.4,-0.38 0.79,-0.74 1.16,-1.09 0.94,-0.94 1.74,-1.7 2.39,-2.29 0.66,-0.59 1.21,-1.06 1.66,-1.42 0.44,-0.37 0.79,-0.65 1.05,-0.85 0.26,-0.2 0.46,-0.39 0.6,-0.58 0.14,-0.18 0.24,-0.4 0.3,-0.63 0.06,-0.23 0.11,-0.56 0.15,-0.98 z m -7.73,-2.75 -2.32,1.52 c -0.07,0.04 -0.05,-0.04 0.07,-0.25 0.12,-0.21 0.26,-0.46 0.44,-0.76 0.18,-0.29 0.35,-0.58 0.53,-0.86 0.17,-0.28 0.3,-0.47 0.37,-0.56 0.14,-0.21 0.29,-0.3 0.45,-0.26 0.17,0.03 0.3,0.12 0.41,0.26 0.1,0.14 0.17,0.3 0.19,0.49 0.02,0.19 -0.02,0.33 -0.14,0.42 z m 12.57,10.27 c 0,0.66 0.15,1.2 0.45,1.63 0.31,0.44 0.8,0.71 1.48,0.83 0.26,0.05 0.51,-0.02 0.77,-0.21 0.26,-0.19 0.46,-0.38 0.6,-0.56 v -2.71 c 0,-3.35 -0.06,-6.66 -0.19,-9.93 -0.13,-3.27 -0.17,-6.57 -0.13,-9.9 -0.02,-0.56 -0.22,-1 -0.61,-1.32 -0.39,-0.31 -0.85,-0.47 -1.39,-0.47 -0.42,0 -0.74,0.07 -0.95,0.23 -0.21,0.15 -0.32,0.45 -0.32,0.89 0.26,2.7 0.38,5.33 0.36,7.9 -0.03,2.56 0,5.18 0.07,7.85 0,0.99 -0.03,1.95 -0.07,2.89 -0.05,0.93 -0.07,1.89 -0.07,2.88 z m 10.35,1.12 c -0.07,0.1 -0.07,0.2 0,0.32 0.07,0.12 0.15,0.22 0.26,0.32 0.1,0.09 0.22,0.18 0.33,0.26 0.12,0.08 0.21,0.14 0.28,0.16 0.1,0.05 0.28,0.1 0.55,0.16 0.27,0.06 0.44,0.1 0.51,0.12 0.28,0.05 0.55,-0.07 0.81,-0.35 0.26,-0.28 0.38,-0.56 0.38,-0.85 -0.02,-0.02 -0.03,-0.04 -0.03,-0.07 v -0.07 c 0,-0.04 -0.01,-0.14 -0.04,-0.28 -0.02,-0.14 -0.05,-0.29 -0.08,-0.45 -0.04,-0.17 -0.07,-0.32 -0.11,-0.46 -0.03,-0.14 -0.05,-0.24 -0.05,-0.28 -0.28,-1.15 -0.48,-2.31 -0.58,-3.48 -0.11,-1.17 -0.19,-2.34 -0.25,-3.5 -0.06,-1.16 -0.13,-2.33 -0.21,-3.5 -0.08,-1.17 -0.23,-2.33 -0.44,-3.48 -0.14,-0.37 -0.41,-0.62 -0.82,-0.74 -0.42,-0.12 -0.8,-0.17 -1.15,-0.17 -0.23,0 -0.46,0.08 -0.68,0.26 -0.23,0.18 -0.34,0.39 -0.34,0.65 v 0.14 c 0,0.02 0.01,0.09 0.04,0.21 0.02,0.12 0.06,0.35 0.1,0.69 0.05,0.34 0.11,0.84 0.2,1.51 0.08,0.67 0.18,1.56 0.3,2.69 0.11,1.12 0.25,2.52 0.42,4.18 0.16,1.67 0.36,3.67 0.6,6.01 z m -1.97,-25.62 c 0,0.49 0.21,0.87 0.65,1.16 0.43,0.28 0.86,0.42 1.28,0.42 0.4,0 0.65,-0.07 0.76,-0.21 0.1,-0.14 0.15,-0.41 0.15,-0.81 0,-0.4 -0.21,-0.7 -0.65,-0.9 -0.43,-0.2 -0.82,-0.3 -1.17,-0.3 -0.14,0 -0.35,0.07 -0.62,0.2 -0.27,0.12 -0.4,0.27 -0.4,0.44 z m 11.72,39.23 c -0.03,0.28 0.13,0.5 0.45,0.67 0.33,0.16 0.76,0.28 1.29,0.37 0.53,0.08 1.11,0.13 1.76,0.15 0.64,0.03 1.25,0.03 1.82,0 0.58,-0.02 1.09,-0.05 1.53,-0.1 0.45,-0.05 0.74,-0.11 0.88,-0.18 1.1,-0.35 1.95,-0.8 2.53,-1.37 0.59,-0.56 1.02,-1.2 1.29,-1.93 0.27,-0.73 0.42,-1.52 0.45,-2.37 0.04,-0.86 0.06,-1.76 0.06,-2.69 l -2.29,-16.6 v -2.85 c 0,-0.28 -0.13,-0.52 -0.4,-0.73 -0.27,-0.21 -0.59,-0.4 -0.95,-0.57 -0.37,-0.16 -0.74,-0.28 -1.13,-0.36 -0.38,-0.09 -0.69,-0.13 -0.93,-0.13 -0.59,0 -1.19,0.25 -1.83,0.76 -0.63,0.5 -1.25,1.15 -1.86,1.95 -0.61,0.8 -1.2,1.69 -1.76,2.67 -0.56,0.99 -1.05,1.98 -1.47,2.97 -0.43,1 -0.76,1.94 -1.01,2.83 -0.24,0.89 -0.37,1.63 -0.37,2.22 0,0.77 0.27,1.36 0.8,1.77 0.52,0.41 1.14,0.62 1.84,0.62 0.8,0 1.52,-0.2 2.16,-0.6 0.65,-0.4 1.23,-0.9 1.76,-1.49 0.53,-0.6 1,-1.25 1.41,-1.94 0.41,-0.69 0.76,-1.33 1.07,-1.91 0.09,-0.07 0.17,-0.07 0.23,0 0.06,0.07 0.1,0.17 0.12,0.29 0.02,0.13 0.03,0.27 0.02,0.41 -0.01,0.14 -0.02,0.24 -0.02,0.32 0.42,2.67 0.77,4.92 1.04,6.76 0.27,1.84 0.43,3.38 0.47,4.61 0.05,1.23 -0.03,2.2 -0.24,2.92 -0.21,0.71 -0.59,1.29 -1.13,1.74 -0.54,0.18 -1.1,0.35 -1.69,0.49 -0.58,0.14 -1.17,0.23 -1.77,0.28 -0.6,0.05 -1.19,0.04 -1.78,-0.04 -0.58,-0.07 -1.15,-0.22 -1.68,-0.45 -0.33,0.09 -0.55,0.3 -0.65,0.63 -0.11,0.33 -0.12,0.62 -0.02,0.88 z m 5.48,-25.56 c 0.54,-0.07 0.88,0.09 1,0.48 0.13,0.38 0.12,0.89 -0.03,1.52 -0.15,0.64 -0.42,1.35 -0.81,2.13 -0.39,0.79 -0.83,1.55 -1.34,2.29 -0.5,0.74 -1.03,1.4 -1.6,2 -0.56,0.6 -1.09,1.03 -1.58,1.28 -0.26,-0.09 -0.35,-0.36 -0.3,-0.8 0.06,-0.45 0.21,-0.99 0.44,-1.62 0.24,-0.63 0.55,-1.32 0.93,-2.06 0.39,-0.74 0.78,-1.45 1.18,-2.13 0.4,-0.68 0.79,-1.3 1.18,-1.86 0.39,-0.56 0.7,-0.97 0.93,-1.23 z m 25.72,3.31 c 0,-0.68 -0.14,-1.14 -0.41,-1.38 -0.27,-0.23 -0.58,-0.34 -0.93,-0.33 -0.35,0.01 -0.7,0.12 -1.04,0.32 -0.34,0.2 -0.57,0.38 -0.68,0.54 l -1.44,2.22 -5.63,5.2 c -0.19,0.07 -0.36,0.19 -0.53,0.35 -0.16,0.17 -0.34,0.25 -0.52,0.25 -0.03,0 -0.06,-0.03 -0.11,-0.07 -0.02,-0.03 -0.03,-0.05 -0.03,-0.07 0,-0.26 0.01,-0.59 0.05,-1.01 0.03,-0.41 0.07,-0.81 0.12,-1.21 0.05,-0.4 0.09,-0.75 0.12,-1.07 0.04,-0.32 0.08,-0.52 0.13,-0.62 l 0.14,-0.28 c 0.07,-0.04 0.2,-0.14 0.4,-0.3 0.2,-0.15 0.42,-0.31 0.65,-0.49 0.24,-0.17 0.45,-0.34 0.65,-0.49 0.2,-0.15 0.34,-0.26 0.41,-0.33 0.02,-0.03 0.07,-0.09 0.16,-0.18 0.08,-0.09 0.16,-0.19 0.26,-0.28 l 0.26,-0.26 0.16,-0.16 c 0.05,-0.03 0.11,-0.06 0.18,-0.11 0.07,-0.05 0.11,-0.07 0.14,-0.07 0.23,-0.19 0.49,-0.39 0.77,-0.6 0.28,-0.21 0.55,-0.44 0.79,-0.68 0.25,-0.25 0.45,-0.52 0.62,-0.81 0.16,-0.29 0.24,-0.62 0.24,-0.97 0,-0.28 -0.13,-0.62 -0.38,-1.02 -0.26,-0.4 -0.58,-0.78 -0.95,-1.14 -0.38,-0.36 -0.77,-0.67 -1.18,-0.93 -0.41,-0.26 -0.76,-0.39 -1.04,-0.39 -0.49,0 -0.92,0.11 -1.28,0.32 -0.36,0.21 -0.68,0.48 -0.95,0.81 -0.27,0.33 -0.5,0.69 -0.7,1.1 -0.2,0.41 -0.38,0.82 -0.55,1.22 -0.05,0.14 -0.13,0.39 -0.26,0.75 -0.13,0.37 -0.27,0.75 -0.41,1.16 -0.14,0.41 -0.27,0.81 -0.4,1.18 -0.13,0.38 -0.22,0.63 -0.26,0.77 -0.07,0.15 -0.19,0.24 -0.36,0.29 -0.16,0.04 -0.33,0.08 -0.51,0.12 -0.17,0.03 -0.32,0.1 -0.45,0.19 -0.13,0.1 -0.2,0.28 -0.2,0.56 0,0.31 0.1,0.55 0.29,0.73 0.18,0.17 0.41,0.38 0.66,0.61 -0.14,0.63 -0.23,1.15 -0.26,1.55 -0.04,0.4 -0.05,0.89 -0.05,1.47 0,0.89 0.23,1.68 0.7,2.36 0.47,0.68 1.21,1.02 2.21,1.02 0.52,0 1.01,-0.09 1.48,-0.28 0.47,-0.19 0.92,-0.43 1.35,-0.72 0.44,-0.3 0.85,-0.63 1.25,-1 0.4,-0.38 0.79,-0.74 1.16,-1.09 0.94,-0.94 1.74,-1.7 2.39,-2.29 0.66,-0.59 1.21,-1.06 1.66,-1.42 0.44,-0.37 0.79,-0.65 1.05,-0.85 0.26,-0.2 0.46,-0.39 0.6,-0.58 0.14,-0.18 0.24,-0.4 0.3,-0.63 0.06,-0.23 0.11,-0.56 0.16,-0.98 z m -7.74,-2.75 -2.32,1.52 c -0.07,0.04 -0.05,-0.04 0.07,-0.25 0.12,-0.21 0.26,-0.46 0.44,-0.76 0.18,-0.29 0.35,-0.58 0.53,-0.86 0.17,-0.28 0.3,-0.47 0.37,-0.56 0.14,-0.21 0.29,-0.3 0.45,-0.26 0.17,0.03 0.3,0.12 0.41,0.26 0.1,0.14 0.17,0.3 0.19,0.49 0.03,0.19 -0.02,0.33 -0.14,0.42 z M 0.46,-1.2 c 0.17,0.36 0.46,0.64 0.88,0.87 C 1.76,-0.11 2.17,0 2.57,0 2.9,0 3.13,-0.13 3.26,-0.4 3.39,-0.67 3.45,-0.95 3.45,-1.23 v -0.23 c 0,-0.1 -0.01,-0.17 -0.03,-0.19 l -1.48,-4.01 -1.9,-8.75 c -0.07,-0.26 -0.17,-0.57 -0.31,-0.94 -0.14,-0.36 -0.32,-0.71 -0.53,-1.05 -0.21,-0.34 -0.46,-0.62 -0.76,-0.83 -0.29,-0.21 -0.61,-0.3 -0.96,-0.28 -0.54,0.05 -0.98,0.29 -1.3,0.72 -0.33,0.44 -0.58,0.89 -0.74,1.36 -0.07,0.18 -0.19,0.51 -0.35,0.96 -0.17,0.46 -0.35,0.95 -0.55,1.46 -0.2,0.52 -0.38,1.01 -0.54,1.48 -0.17,0.47 -0.29,0.8 -0.36,0.98 -0.09,-0.37 -0.14,-0.69 -0.14,-0.95 v -0.95 c 0,-0.6 0.03,-1.21 0.09,-1.81 0.06,-0.59 0.09,-1.2 0.09,-1.81 0,-0.42 -0.19,-0.82 -0.58,-1.19 -0.39,-0.38 -0.8,-0.56 -1.25,-0.56 -0.33,0 -0.57,0.06 -0.72,0.19 -0.15,0.13 -0.26,0.3 -0.32,0.51 -0.05,0.21 -0.09,0.44 -0.1,0.68 -0.01,0.25 -0.02,0.49 -0.02,0.73 0.02,0.21 0.05,0.66 0.07,1.35 0.02,0.69 0.04,1.51 0.05,2.46 0.02,0.95 0.02,1.97 0,3.06 -0.01,1.09 -0.03,2.13 -0.05,3.11 -0.02,0.98 -0.06,1.85 -0.12,2.6 -0.06,0.75 -0.13,1.27 -0.2,1.55 0.03,0.21 0.1,0.4 0.23,0.56 0.13,0.16 0.29,0.31 0.48,0.42 0.19,0.12 0.38,0.21 0.6,0.27 0.21,0.05 0.41,0.08 0.59,0.08 0.38,0 0.65,-0.06 0.81,-0.19 0.17,-0.13 0.31,-0.36 0.42,-0.69 l 3.06,-9.42 c 0.28,-0.7 0.53,-1.02 0.74,-0.95 0.21,0.07 0.4,0.37 0.58,0.9 0.18,0.53 0.35,1.23 0.51,2.11 0.16,0.88 0.35,1.78 0.55,2.71 0.19,0.92 0.41,1.8 0.63,2.63 0.22,0.84 0.5,1.49 0.82,1.95 z m 11.51,-9.07 h 0.14 c 0.12,1.34 0.25,2.73 0.37,4.19 0.13,1.45 0.26,2.79 0.37,4.01 0.05,0.63 0.27,1.13 0.67,1.51 0.4,0.37 0.92,0.56 1.55,0.56 0.3,0 0.53,-0.18 0.67,-0.53 0.14,-0.35 0.21,-0.63 0.21,-0.84 0,-0.7 -0.07,-1.4 -0.21,-2.08 -0.14,-0.68 -0.27,-1.37 -0.39,-2.07 -0.12,-0.82 -0.19,-1.67 -0.23,-2.55 -0.03,-0.88 -0.05,-1.73 -0.05,-2.55 v -1.12 c 0.07,-0.07 0.14,-0.13 0.21,-0.16 0.07,-0.04 0.14,-0.08 0.21,-0.12 l 6.4,-2.39 c 0.26,-0.12 0.5,-0.25 0.74,-0.39 0.23,-0.14 0.35,-0.36 0.35,-0.67 0,-0.42 -0.12,-0.79 -0.37,-1.11 -0.25,-0.31 -0.6,-0.47 -1.07,-0.47 -0.68,0 -1.35,0.16 -2.01,0.47 -0.65,0.32 -1.29,0.61 -1.9,0.87 -0.11,0.04 -0.31,0.11 -0.58,0.21 -0.27,0.09 -0.55,0.19 -0.86,0.29 -0.3,0.11 -0.59,0.22 -0.86,0.32 -0.27,0.11 -0.45,0.17 -0.54,0.19 -0.03,-0.3 -0.06,-0.84 -0.11,-1.61 -0.05,-0.78 -0.09,-1.6 -0.14,-2.46 -0.05,-0.87 -0.09,-1.69 -0.14,-2.46 -0.05,-0.78 -0.07,-1.32 -0.07,-1.62 -0.02,-0.31 -0.04,-0.68 -0.04,-1.11 0,-0.43 -0.04,-0.84 -0.14,-1.23 -0.09,-0.39 -0.25,-0.71 -0.47,-0.98 -0.22,-0.27 -0.57,-0.41 -1.04,-0.41 -0.4,0 -0.71,0.07 -0.95,0.21 -0.23,0.14 -0.35,0.45 -0.35,0.92 0,1.71 0.08,3.44 0.25,5.18 0.16,1.75 0.24,3.49 0.24,5.22 v 1.55 c -0.23,0.19 -0.54,0.35 -0.93,0.49 -0.38,0.14 -0.77,0.3 -1.14,0.46 -0.38,0.16 -0.7,0.36 -0.98,0.58 -0.29,0.22 -0.43,0.51 -0.43,0.86 0,0.21 0.04,0.38 0.13,0.49 0.08,0.12 0.18,0.22 0.3,0.3 0.11,0.08 0.23,0.16 0.35,0.23 0.11,0.07 0.22,0.16 0.31,0.28 0.05,0 0.17,0.01 0.37,0.02 0.2,0.01 0.32,0.02 0.37,0.02 0.35,0 0.66,-0.09 0.92,-0.25 0.25,-0.16 0.55,-0.25 0.87,-0.25 z m 25.75,9.07 c 0.17,0.36 0.46,0.64 0.88,0.87 0.42,0.22 0.83,0.33 1.23,0.33 0.33,0 0.56,-0.13 0.69,-0.4 0.13,-0.27 0.19,-0.55 0.19,-0.83 v -0.23 c 0,-0.1 -0.01,-0.17 -0.03,-0.19 l -1.48,-4.01 -1.9,-8.75 c -0.07,-0.26 -0.17,-0.57 -0.32,-0.94 -0.14,-0.36 -0.31,-0.71 -0.52,-1.05 -0.21,-0.34 -0.47,-0.62 -0.76,-0.83 -0.29,-0.21 -0.61,-0.3 -0.97,-0.28 -0.53,0.05 -0.97,0.29 -1.3,0.72 -0.32,0.44 -0.57,0.89 -0.73,1.36 -0.07,0.18 -0.19,0.51 -0.36,0.96 -0.16,0.46 -0.34,0.95 -0.54,1.46 -0.2,0.52 -0.38,1.01 -0.55,1.48 -0.16,0.47 -0.28,0.8 -0.35,0.98 -0.09,-0.37 -0.14,-0.69 -0.14,-0.95 v -0.95 c 0,-0.6 0.03,-1.21 0.09,-1.81 0.06,-0.59 0.09,-1.2 0.09,-1.81 0,-0.42 -0.2,-0.82 -0.58,-1.19 -0.39,-0.38 -0.81,-0.56 -1.25,-0.56 -0.33,0 -0.57,0.06 -0.72,0.19 -0.15,0.13 -0.26,0.3 -0.32,0.51 -0.06,0.21 -0.09,0.44 -0.1,0.68 -0.01,0.25 -0.02,0.49 -0.02,0.73 0.02,0.21 0.05,0.66 0.07,1.35 0.02,0.69 0.04,1.51 0.05,2.46 0.01,0.95 0.01,1.97 0,3.06 -0.01,1.09 -0.03,2.13 -0.05,3.11 -0.02,0.98 -0.06,1.85 -0.12,2.6 -0.06,0.75 -0.13,1.27 -0.2,1.55 0.03,0.21 0.1,0.4 0.23,0.56 0.13,0.16 0.29,0.31 0.48,0.42 0.18,0.12 0.38,0.21 0.59,0.27 0.21,0.05 0.41,0.08 0.6,0.08 0.38,0 0.65,-0.06 0.81,-0.19 0.16,-0.13 0.3,-0.36 0.42,-0.69 l 3.06,-9.42 c 0.28,-0.7 0.53,-1.02 0.74,-0.95 0.21,0.07 0.4,0.37 0.58,0.9 0.17,0.53 0.34,1.23 0.51,2.11 0.16,0.88 0.34,1.78 0.54,2.71 0.2,0.92 0.41,1.8 0.64,2.63 0.22,0.84 0.49,1.49 0.82,1.95 z M 52.89,9.67 c 0.12,0.3 0.2,0.6 0.25,0.88 0.04,0.28 0.12,0.53 0.24,0.75 0.12,0.23 0.29,0.4 0.51,0.53 0.22,0.13 0.57,0.19 1.04,0.19 0.35,0 0.65,-0.08 0.89,-0.24 0.25,-0.17 0.37,-0.42 0.37,-0.78 -0.02,0.03 -0.04,-0.2 -0.05,-0.68 C 56.13,9.84 56.12,9.23 56.11,8.49 56.09,7.75 56.08,6.94 56.07,6.05 56.06,5.16 56.05,4.3 56.04,3.48 56.02,2.66 56.02,1.93 56.02,1.28 c 0,-0.64 0.01,-1.07 0.03,-1.28 0,-2.23 -0.03,-4.45 -0.08,-6.66 -0.06,-2.22 -0.14,-4.44 -0.23,-6.66 -0.03,-0.33 -0.03,-0.67 -0.02,-1.02 0.01,-0.36 -0.08,-0.66 -0.26,-0.92 -0.22,-0.28 -0.42,-0.47 -0.62,-0.56 -0.2,-0.09 -0.5,-0.16 -0.9,-0.21 -0.32,-0.02 -0.61,0.07 -0.84,0.28 -0.23,0.21 -0.35,0.48 -0.35,0.81 0,1.15 0.02,2.28 0.07,3.39 0.05,1.11 0.07,2.26 0.07,3.43 v 3.69 l -0.42,-0.46 -0.23,-0.35 c -0.15,-0.23 -0.34,-0.51 -0.55,-0.82 -0.21,-0.32 -0.42,-0.64 -0.63,-0.97 -0.21,-0.33 -0.39,-0.6 -0.53,-0.81 -0.23,-0.35 -0.47,-0.72 -0.72,-1.11 -0.24,-0.38 -0.52,-0.74 -0.82,-1.07 -0.31,-0.33 -0.65,-0.6 -1.02,-0.81 -0.38,-0.21 -0.8,-0.31 -1.27,-0.31 -0.19,0 -0.38,0.04 -0.58,0.14 -0.2,0.09 -0.32,0.24 -0.37,0.45 -0.04,0.21 0,0.49 0.14,0.83 0.14,0.34 0.46,0.77 0.95,1.28 1.27,1.88 2.28,3.34 3.03,4.38 0.75,1.04 1.33,1.83 1.74,2.35 0.41,0.53 0.69,0.88 0.86,1.06 0.16,0.18 0.3,0.35 0.42,0.51 v 1.27 c -0.05,0.65 -0.08,1.38 -0.09,2.17 -0.01,0.8 -0.02,1.59 -0.02,2.36 0,0.77 0.01,1.51 0.02,2.22 0.01,0.7 0.04,1.3 0.09,1.79 z M 88.32,-5.55 c 0.05,0 0.1,0 0.16,0.01 0.06,0.01 0.09,0.06 0.09,0.13 l 1.3,9.38 c 0.07,0.35 0.3,0.63 0.7,0.83 0.4,0.2 0.77,0.3 1.12,0.3 0.07,0 0.19,-0.01 0.34,-0.02 0.15,-0.01 0.3,-0.04 0.46,-0.07 0.15,-0.04 0.28,-0.09 0.38,-0.16 0.11,-0.07 0.16,-0.17 0.16,-0.31 v -1.2 c -0.44,-3.09 -0.83,-5.82 -1.16,-8.17 -0.33,-2.36 -0.61,-4.45 -0.84,-6.26 -0.24,-1.82 -0.43,-3.39 -0.58,-4.73 -0.16,-1.34 -0.27,-2.53 -0.34,-3.59 -0.07,-1.05 -0.11,-1.99 -0.12,-2.83 -0.01,-0.83 0.01,-1.64 0.05,-2.44 -0.07,-0.52 -0.26,-0.95 -0.58,-1.3 -0.31,-0.35 -0.74,-0.53 -1.28,-0.53 -0.21,0 -0.41,0.04 -0.58,0.13 -0.18,0.08 -0.3,0.25 -0.37,0.5 0,1.53 0.02,2.84 0.05,3.92 0.04,1.09 0.07,2.06 0.11,2.89 0.03,0.83 0.07,1.57 0.1,2.21 0.04,0.65 0.06,1.27 0.06,1.88 v 0.5 c -0.71,-0.19 -1.4,-0.15 -2.1,0.14 -0.69,0.28 -1.35,0.71 -1.98,1.28 -0.63,0.57 -1.23,1.25 -1.78,2.04 -0.55,0.78 -1.02,1.59 -1.4,2.42 -0.39,0.84 -0.68,1.64 -0.88,2.41 -0.2,0.78 -0.28,1.44 -0.23,2.01 0,1.1 0.34,1.97 1.04,2.6 0.69,0.63 1.55,0.95 2.58,0.95 0.75,0 1.46,-0.26 2.13,-0.78 0.66,-0.51 1.25,-1.07 1.74,-1.68 0.49,-0.61 0.88,-1.18 1.17,-1.69 0.3,-0.52 0.46,-0.77 0.48,-0.77 z m -6.19,0.77 c 0,-1.38 0.34,-2.65 1,-3.8 0.67,-1.15 1.51,-2.17 2.52,-3.06 0.82,-0.18 1.4,-0.11 1.74,0.23 0.34,0.34 0.49,0.83 0.45,1.46 -0.03,0.63 -0.22,1.35 -0.56,2.15 -0.34,0.79 -0.77,1.54 -1.28,2.23 -0.52,0.69 -1.08,1.27 -1.71,1.74 -0.62,0.47 -1.22,0.69 -1.81,0.67 -0.14,0 -0.23,-0.07 -0.28,-0.22 -0.04,-0.14 -0.07,-0.3 -0.09,-0.49 -0.01,-0.18 -0.01,-0.37 0,-0.54 0.02,-0.18 0.02,-0.3 0.02,-0.37 z m 15.56,-0.6 v 0.11 c 0,0.61 0.07,1.23 0.21,1.86 0.14,0.63 0.37,1.2 0.68,1.7 0.32,0.51 0.73,0.92 1.23,1.25 0.51,0.33 1.11,0.5 1.81,0.5 0.78,0 1.54,-0.26 2.29,-0.78 0.75,-0.51 1.42,-1.16 2.02,-1.93 0.6,-0.78 1.08,-1.6 1.44,-2.46 0.36,-0.87 0.55,-1.66 0.55,-2.36 0,-0.58 -0.08,-1.26 -0.23,-2.04 -0.16,-0.77 -0.4,-1.49 -0.72,-2.16 -0.33,-0.67 -0.76,-1.24 -1.29,-1.7 -0.52,-0.47 -1.16,-0.71 -1.91,-0.71 -0.33,0 -0.61,0.06 -0.83,0.16 -0.22,0.11 -0.47,0.16 -0.75,0.16 h -0.04 c -0.21,-0.42 -0.47,-0.78 -0.77,-1.07 -0.31,-0.3 -0.72,-0.44 -1.23,-0.44 -0.29,0 -0.54,0.07 -0.76,0.21 -0.22,0.14 -0.36,0.36 -0.4,0.67 z m 2.95,0.21 v -0.1 c 0,-0.68 0.05,-1.43 0.16,-2.24 0.1,-0.8 0.3,-1.51 0.58,-2.12 0.49,-0.99 0.98,-1.59 1.47,-1.81 0.5,-0.23 0.93,-0.19 1.32,0.1 0.39,0.3 0.69,0.78 0.9,1.44 0.21,0.67 0.27,1.4 0.17,2.2 0,0.49 -0.1,0.96 -0.31,1.41 -0.21,0.44 -0.48,0.86 -0.79,1.26 -0.32,0.4 -0.65,0.78 -1.01,1.13 -0.35,0.35 -0.68,0.67 -0.98,0.95 -0.33,0.11 -0.58,0.11 -0.76,-0.02 -0.17,-0.13 -0.31,-0.32 -0.4,-0.56 -0.09,-0.25 -0.16,-0.52 -0.21,-0.83 -0.05,-0.3 -0.09,-0.57 -0.14,-0.81 z m 12.95,-6.29 v 0 0.14 c 0,0.16 0.02,0.49 0.05,0.98 l 0.13,1.73 c 0.04,0.65 0.08,1.34 0.12,2.07 0.03,0.73 0.07,1.42 0.12,2.08 0.05,0.65 0.08,1.22 0.11,1.7 0.02,0.48 0.04,0.8 0.07,0.97 0.02,0.44 0.21,0.85 0.58,1.23 0.36,0.37 0.8,0.56 1.32,0.56 0.09,0 0.21,-0.01 0.35,-0.04 0.14,-0.02 0.28,-0.06 0.42,-0.12 0.14,-0.06 0.26,-0.14 0.37,-0.24 0.1,-0.11 0.17,-0.23 0.19,-0.37 l 0.35,-2.18 1.62,-5.94 1.02,-2.43 c 0.07,0.14 0.12,0.24 0.14,0.3 0.02,0.06 0.04,0.1 0.04,0.14 v 0.12 0.21 c 0.02,0.45 0.07,1.05 0.14,1.8 0.07,0.75 0.13,1.49 0.19,2.23 0.06,0.74 0.11,1.39 0.16,1.97 0.04,0.57 0.07,0.91 0.07,1 0.05,0.42 0.1,0.8 0.17,1.12 0.07,0.33 0.19,0.61 0.36,0.85 0.16,0.23 0.39,0.41 0.7,0.53 0.3,0.11 0.7,0.17 1.19,0.17 0.17,0 0.36,-0.05 0.58,-0.16 0.23,-0.1 0.36,-0.26 0.41,-0.47 0.28,-1.08 0.56,-2.13 0.82,-3.17 0.27,-1.03 0.51,-1.96 0.73,-2.79 0.21,-0.83 0.39,-1.52 0.54,-2.07 0.15,-0.56 0.25,-0.89 0.3,-1.01 l 0.17,0.28 1.62,8.34 c 0.07,0.39 0.34,0.72 0.79,0.98 0.46,0.26 0.86,0.39 1.22,0.39 0.25,0 0.51,-0.13 0.75,-0.37 0.25,-0.25 0.37,-0.5 0.37,-0.76 0,-0.11 0,-0.21 -0.02,-0.28 -0.01,-0.07 -0.06,-0.15 -0.15,-0.24 l -1.94,-10.24 c 0.03,-0.02 0.04,-0.05 0.04,-0.08 0,-0.04 -0.01,-0.06 -0.04,-0.06 -0.09,-0.44 -0.17,-0.93 -0.24,-1.45 -0.07,-0.53 -0.19,-1.02 -0.34,-1.46 -0.15,-0.45 -0.39,-0.82 -0.7,-1.11 -0.32,-0.29 -0.77,-0.44 -1.36,-0.44 -0.21,0 -0.4,0.01 -0.58,0.02 -0.17,0.01 -0.34,0.14 -0.5,0.4 -0.03,0.07 -0.08,0.18 -0.15,0.34 -0.07,0.15 -0.14,0.31 -0.21,0.49 -0.07,0.17 -0.14,0.34 -0.21,0.49 -0.07,0.15 -0.11,0.25 -0.14,0.3 -0.07,0.19 -0.17,0.51 -0.31,0.98 -0.15,0.47 -0.3,0.96 -0.46,1.48 -0.17,0.51 -0.31,1.01 -0.44,1.48 -0.13,0.46 -0.22,0.78 -0.26,0.94 h -0.15 c -0.02,-0.14 -0.05,-0.39 -0.08,-0.77 -0.04,-0.37 -0.07,-0.77 -0.11,-1.19 -0.03,-0.43 -0.06,-0.83 -0.09,-1.22 -0.02,-0.38 -0.03,-0.65 -0.03,-0.79 -0.02,-0.42 -0.04,-0.81 -0.05,-1.16 -0.02,-0.35 -0.07,-0.65 -0.18,-0.89 -0.11,-0.25 -0.29,-0.45 -0.55,-0.6 -0.25,-0.15 -0.64,-0.25 -1.16,-0.3 -0.32,-0.05 -0.62,0.02 -0.89,0.19 -0.27,0.18 -0.48,0.4 -0.62,0.65 l -3.09,5.8 c -0.07,-0.07 -0.12,-0.23 -0.16,-0.49 -0.03,-0.26 -0.06,-0.54 -0.07,-0.84 -0.01,-0.31 -0.02,-0.6 -0.02,-0.88 0,-0.28 -0.01,-0.48 -0.03,-0.6 -0.03,-0.28 -0.03,-0.57 -0.02,-0.88 0.01,-0.3 -0.01,-0.6 -0.05,-0.88 -0.05,-0.28 -0.14,-0.54 -0.28,-0.77 -0.14,-0.23 -0.39,-0.43 -0.74,-0.6 h -0.7 c -0.4,0 -0.77,0.07 -1.11,0.21 -0.34,0.14 -0.51,0.47 -0.51,0.99 0.12,0.61 0.2,1.22 0.26,1.84 0.06,0.62 0.11,1.24 0.16,1.85 z"
         id="path115"
         style="fill:#ffffff" />
    </g>
  </g>
</svg>
